<?xml version="1.0" encoding="UTF-8"?>
<svg version="1.1" xmlns="http://www.w3.org/2000/svg" width="500" height="500">
<path d="M0 0 C165 0 330 0 500 0 C500 165 500 330 500 500 C335 500 170 500 0 500 C0 335 0 170 0 0 Z " fill="#FEF8F8" transform="translate(0,0)"/>
<path d="M0 0 C17.16 0 34.32 0 52 0 C54.000625 4.764375 56.00125 9.52875 58.0625 14.4375 C59.01588257 16.66391235 59.01588257 16.66391235 59.98852539 18.93530273 C60.47828857 20.13098877 60.96805176 21.3266748 61.47265625 22.55859375 C61.98062744 23.76829834 62.48859863 24.97800293 63.01196289 26.22436523 C64.04572262 30.17472211 63.92623119 32.58928102 63.33155823 36.54014587 C62.7035526 41.19936436 62.76011923 45.90257937 62.68359375 50.59765625 C62.6524221 52.20996376 62.6524221 52.20996376 62.62062073 53.85484314 C62.55571832 57.25733619 62.49651854 60.65990032 62.4375 64.0625 C62.39425826 66.38216854 62.35064225 68.70183013 62.30664062 71.02148438 C62.19940073 76.68091812 62.09988757 82.3404127 62 88 C70.25 88 78.5 88 87 88 C88.66873268 92.14501278 90.33508238 96.29095517 92 100.4375 C92.71542969 102.21350586 92.71542969 102.21350586 93.4453125 104.02539062 C93.89648438 105.15009766 94.34765625 106.27480469 94.8125 107.43359375 C95.23144531 108.47572021 95.65039062 109.51784668 96.08203125 110.59155273 C97 113 97 113 97 114 C81.82 114 66.64 114 51 114 C49.85402344 110.75542969 48.70804687 107.51085937 47.52734375 104.16796875 C46.39230943 100.95716886 45.25684312 97.74652205 44.12133789 94.53588867 C43.34419564 92.33780537 42.5674887 90.1395681 41.79125977 87.94116211 C40.66282282 84.74550455 39.53296525 81.55035403 38.40234375 78.35546875 C38.03249359 77.30946503 37.66264343 76.2634613 37.28158569 75.1857605 C35.51561791 70.20756532 33.72781883 65.23973132 31.87939453 60.29150391 C31.38748375 58.97403923 31.38748375 58.97403923 30.88563538 57.62995911 C30.27312512 55.99741999 29.65622757 54.36651763 29.03416443 52.7375946 C27.88825115 49.68900863 27 47.28595209 27 44 C26.34 44 25.68 44 25 44 C24.814375 44.82564453 24.814375 44.82564453 24.625 45.66796875 C22.03687471 56.10134883 17.90679535 66.00565654 14 76 C20.93 76 27.86 76 35 76 C36.41737087 79.77056994 37.83391329 83.54144778 39.25 87.3125 C39.64574219 88.36501953 40.04148437 89.41753906 40.44921875 90.50195312 C41.24373075 92.61848098 42.03604797 94.73583401 42.82617188 96.85400391 C43.6089362 98.95190347 44.39670382 101.04794298 45.18945312 103.14208984 C45.55490234 104.12000488 45.92035156 105.09791992 46.296875 106.10546875 C46.62526367 106.9771167 46.95365234 107.84876465 47.29199219 108.74682617 C48 111 48 111 48 114 C17.64 114 -12.72 114 -44 114 C-42.00642695 107.35475649 -39.95026842 100.99396328 -37.40234375 94.578125 C-37.05568665 93.69548981 -36.70902954 92.81285461 -36.35186768 91.9034729 C-35.21746469 89.01750223 -34.07751498 86.13375787 -32.9375 83.25 C-32.13997405 81.22428121 -31.34286189 79.19839946 -30.54614258 77.17236328 C-29.30441697 74.01519163 -28.06226655 70.85819172 -26.81852722 67.70181274 C-23.86038011 60.19444484 -20.91774276 52.6811446 -17.984375 45.1640625 C-17.57953384 44.127052 -17.17469269 43.0900415 -16.75758362 42.02160645 C-15.18559486 37.99482315 -13.61364539 33.96802559 -12.04342651 29.94055176 C-10.96122172 27.16559481 -9.87727337 24.3913245 -8.79296875 21.6171875 C-8.4821637 20.81890533 -8.17135864 20.02062317 -7.85113525 19.19815063 C-5.32952001 12.75343523 -2.66387519 6.39330046 0 0 Z " fill="#181717" transform="translate(146,191)"/>
<path d="M0 0 C9.9 0 19.8 0 30 0 C30.06058594 2.57554687 30.12117188 5.15109375 30.18359375 7.8046875 C30.24536587 10.29348744 30.30876071 12.78224109 30.37231445 15.27099609 C30.4156808 17.00337626 30.45735463 18.73579963 30.49731445 20.46826172 C30.55497594 22.95553627 30.61868198 25.44259293 30.68359375 27.9296875 C30.70030624 28.70682098 30.71701874 29.48395447 30.73423767 30.28463745 C30.76473429 34.27274216 30.76473429 34.27274216 32 38 C33.98 38 35.96 38 38 38 C39.58230808 34.83538385 39.24157813 31.40920633 39.31640625 27.9296875 C39.33718735 27.13345978 39.35796844 26.33723206 39.37937927 25.51687622 C39.44484149 22.96967315 39.50374415 20.42236575 39.5625 17.875 C39.6056884 16.14972873 39.64930279 14.42446807 39.69335938 12.69921875 C39.80132245 8.46625128 39.90042007 4.23320629 40 0 C49.9 0 59.8 0 70 0 C70.0926049 5.31706486 70.17199985 10.63125283 70.21972656 15.94848633 C70.23965268 17.75131795 70.26680384 19.55408658 70.30175781 21.35668945 C70.56257956 35.16873499 70.42857895 48.07977849 60.9140625 59.1328125 C53.70216783 66.16808934 45.06767059 69.11186668 35.125 69.4375 C25.09766348 69.18897765 16.23249113 66.10560532 9 59 C-1.11382677 47.2311834 -0.39815685 33.43791516 -0.1875 18.8125 C-0.17242375 16.983735 -0.15874056 15.15495795 -0.14648438 13.32617188 C-0.11628997 8.8835684 -0.05753093 4.442666 0 0 Z " fill="#1C1B1B" transform="translate(260,241)"/>
<path d="M0 0 C7.94727787 4.60942117 13.09526943 11.2858083 16 20 C16 22.31 16 24.62 16 27 C8.08 27 0.16 27 -8 27 C-8 39.54 -8 52.08 -8 65 C-9.65 65 -11.3 65 -13 65 C-13.33 52.13 -13.66 39.26 -14 26 C-15.98 26 -17.96 26 -20 26 C-22.97855356 28.97855356 -22.35625184 32.29024823 -22.4140625 36.2890625 C-22.43342865 37.10748627 -22.4527948 37.92591003 -22.4727478 38.76913452 C-22.53261082 41.38764976 -22.57895532 44.00620881 -22.625 46.625 C-22.66317364 48.39845686 -22.70222501 50.17189505 -22.7421875 51.9453125 C-22.83997326 56.29677885 -22.91948666 60.64804227 -23 65 C-32.57 65 -42.14 65 -52 65 C-52.09237042 59.21915124 -52.17184284 53.44091383 -52.21972656 47.65991211 C-52.23970918 45.69790926 -52.26690484 43.73596495 -52.30175781 41.77416992 C-52.54791699 27.5512376 -52.61634307 15.76903776 -42.21484375 4.94140625 C-30.09843506 -5.67914952 -14.34891796 -6.77252851 0 0 Z " fill="#1A1919" transform="translate(264,210)"/>
<path d="M0 0 C9.57 0 19.14 0 29 0 C29.06312959 7.2528883 29.12320806 14.50476583 29.15525055 21.75769043 C29.17101035 25.13610746 29.19202576 28.51429406 29.22631836 31.89257812 C29.26292452 35.78000902 29.27977786 39.667115 29.29296875 43.5546875 C29.30845261 44.74988007 29.32393646 45.94507263 29.33988953 47.17648315 C29.34190892 57.33997561 27.93990003 66.22647834 21 74 C14.70233347 80.29766653 7.41468983 82.16724092 -1.25 82.28125 C-5.1675571 82.23866786 -9.08376493 82.11031648 -13 82 C-13 72.76 -13 63.52 -13 54 C-8.71 54 -4.42 54 0 54 C0 36.18 0 18.36 0 0 Z " fill="#171616" transform="translate(351,242)"/>
</svg>
