<?xml version="1.0" encoding="UTF-8"?>
<svg version="1.1" xmlns="http://www.w3.org/2000/svg" width="500" height="500">
<path d="M0 0 C165 0 330 0 500 0 C500 165 500 330 500 500 C335 500 170 500 0 500 C0 335 0 170 0 0 Z " fill="#171616" transform="translate(0,0)"/>
<path d="M0 0 C17.16 0 34.32 0 52 0 C54.02125 4.57875 56.0425 9.1575 58.125 13.875 C58.76969238 15.29796387 59.41438477 16.72092773 60.07861328 18.18701172 C60.81700439 19.91588623 60.81700439 19.91588623 61.5703125 21.6796875 C62.08352051 22.84226074 62.59672852 24.00483398 63.12548828 25.20263672 C64.1256588 29.54564403 63.57954169 32.09687647 62.55740356 36.34689331 C61.60491747 40.88049766 61.64181768 45.42117719 61.5859375 50.0390625 C61.56657135 51.04593109 61.5472052 52.05279968 61.5272522 53.09017944 C61.46804392 56.26837002 61.42130848 59.446598 61.375 62.625 C61.33676603 64.79558767 61.29771126 66.96616104 61.2578125 69.13671875 C61.16086495 74.42439971 61.08083101 79.71195056 61 85 C69.25 85 77.5 85 86 85 C87.5698106 88.80730038 89.13747862 92.6153738 90.69970703 96.42578125 C91.23197786 97.72219683 91.76550105 99.01809894 92.30029297 100.31347656 C93.06805964 102.17377949 93.83097659 104.03608163 94.59375 105.8984375 C95.28500977 107.57945557 95.28500977 107.57945557 95.99023438 109.29443359 C97 112 97 112 97 114 C81.82 114 66.64 114 51 114 C49.60265625 110.08511719 48.2053125 106.17023438 46.765625 102.13671875 C45.64085584 98.98607602 44.51602158 95.83545655 43.3911438 92.6848526 C42.20948797 89.37516667 41.02794289 86.06544131 39.84667969 82.75561523 C38.48668838 78.94502107 37.12616746 75.13461617 35.765625 71.32421875 C35.34879456 70.15606125 34.93196411 68.98790375 34.50250244 67.78434753 C34.10238953 66.66401627 33.70227661 65.543685 33.29003906 64.3894043 C32.90851685 63.3188681 32.52699463 62.24833191 32.13391113 61.14535522 C31.37350553 59.0360667 30.60013443 56.93141042 29.81433105 54.83145142 C29.44731079 53.84913544 29.08029053 52.86681946 28.70214844 51.85473633 C28.37390076 50.98883377 28.04565308 50.12293121 27.7074585 49.23078918 C27 47 27 47 27 44 C26.34 44 25.68 44 25 44 C24.88213135 44.69311279 24.7642627 45.38622559 24.64282227 46.1003418 C23.92600356 49.33378491 22.87617217 52.29275536 21.71484375 55.39453125 C21.26689453 56.59658203 20.81894531 57.79863281 20.35742188 59.03710938 C19.88419654 60.29560374 19.41088821 61.5540669 18.9375 62.8125 C18.45994011 64.09036541 17.982723 65.36835898 17.50585938 66.64648438 C16.34061069 69.76558439 15.17074904 72.88296037 14 76 C20.93 76 27.86 76 35 76 C38.58630884 85.10922446 42.14465286 94.21772915 45.4375 103.4375 C45.82542725 104.50955688 45.82542725 104.50955688 46.22119141 105.60327148 C47.256966 108.53701959 48 110.86402752 48 114 C17.64 114 -12.72 114 -44 114 C-43.08926891 109.44634455 -41.73495922 105.44394061 -40.03515625 101.16015625 C-39.73033325 100.38210632 -39.42551025 99.6040564 -39.1114502 98.8024292 C-38.09903001 96.22090357 -37.08078798 93.64171608 -36.0625 91.0625 C-35.34783068 89.24388899 -34.63356419 87.42511963 -33.91967773 85.60620117 C-32.40391673 81.74524599 -30.88608335 77.88511353 -29.3671875 74.02539062 C-26.98364395 67.96397133 -24.61553139 61.89659208 -22.25 55.828125 C-21.06968571 52.80243487 -19.88921605 49.7768054 -18.70870972 46.75119019 C-17.95869817 44.82828592 -17.20910853 42.90521702 -16.45999146 40.98196411 C-16.10395844 40.06825043 -15.74792542 39.15453674 -15.38110352 38.21313477 C-15.07286148 37.42157486 -14.76461945 36.63001495 -14.44703674 35.81446838 C-9.74728914 23.8204442 -4.87995932 11.92878945 0 0 Z " fill="#FDF7F7" transform="translate(146,194)"/>
<path d="M0 0 C9.9 0 19.8 0 30 0 C30.06058594 2.57554687 30.12117188 5.15109375 30.18359375 7.8046875 C30.24536587 10.29348744 30.30876071 12.78224109 30.37231445 15.27099609 C30.4156808 17.00337626 30.45735463 18.73579963 30.49731445 20.46826172 C30.55497594 22.95553627 30.61868198 25.44259293 30.68359375 27.9296875 C30.70030624 28.70682098 30.71701874 29.48395447 30.73423767 30.28463745 C30.76473429 34.27274216 30.76473429 34.27274216 32 38 C34.31 38 36.62 38 39 38 C39.33 25.46 39.66 12.92 40 0 C49.9 0 59.8 0 70 0 C70.06924547 5.51399139 70.12886477 11.02644599 70.16479492 16.54052734 C70.17978865 18.41232443 70.2001905 20.28408694 70.22631836 22.15576172 C70.4124256 35.84011788 70.56422909 48.16991706 61 59 C51.74352397 67.10728768 42.99005015 69.69134134 30.7890625 69.41015625 C21.42060038 68.39604437 13.16399571 64.15080709 7 57 C1.32794878 48.81831998 -0.31257009 41.12459378 -0.1953125 31.34765625 C-0.1924826 30.44752304 -0.18965271 29.54738983 -0.18673706 28.61997986 C-0.17561278 25.7673468 -0.15052283 22.91503689 -0.125 20.0625 C-0.11496017 18.11914518 -0.10583608 16.17578541 -0.09765625 14.23242188 C-0.07740716 9.48805898 -0.03824406 4.74438784 0 0 Z " fill="#FBF5F5" transform="translate(260,240)"/>
<path d="M0 0 C6.02715034 4.96772509 10.16964143 10.50378344 12.20703125 18.1171875 C12.20703125 20.4271875 12.20703125 22.7371875 12.20703125 25.1171875 C4.28703125 25.1171875 -3.63296875 25.1171875 -11.79296875 25.1171875 C-11.79296875 37.6571875 -11.79296875 50.1971875 -11.79296875 63.1171875 C-13.44296875 63.1171875 -15.09296875 63.1171875 -16.79296875 63.1171875 C-17.12296875 50.2471875 -17.45296875 37.3771875 -17.79296875 24.1171875 C-19.77296875 24.1171875 -21.75296875 24.1171875 -23.79296875 24.1171875 C-26.77152231 27.09574106 -26.14922059 30.40743573 -26.20703125 34.40625 C-26.2263974 35.22467377 -26.24576355 36.04309753 -26.26571655 36.88632202 C-26.32557957 39.50483726 -26.37192407 42.12339631 -26.41796875 44.7421875 C-26.45614239 46.51564436 -26.49519376 48.28908255 -26.53515625 50.0625 C-26.63294201 54.41396635 -26.71245541 58.76522977 -26.79296875 63.1171875 C-36.36296875 63.1171875 -45.93296875 63.1171875 -55.79296875 63.1171875 C-55.88524474 57.17563929 -55.96474747 51.23661808 -56.01269531 45.29492188 C-56.03270091 43.27758315 -56.05991435 41.2603016 -56.09472656 39.24316406 C-56.14373452 36.32863177 -56.16604839 33.41487191 -56.18359375 30.5 C-56.20423889 29.61104034 -56.22488403 28.72208069 -56.24615479 27.80618286 C-56.24930248 18.84480378 -53.23000818 10.94730769 -47.625 3.9375 C-35.15565543 -8.4520833 -14.4095233 -9.71383249 0 0 Z " fill="#FBF5F5" transform="translate(267.79296875,210.8828125)"/>
<path d="M0 0 C9.57 0 19.14 0 29 0 C29.08411144 7.66115026 29.16422017 15.32060784 29.20700073 22.98181915 C29.22803803 26.55017552 29.25610347 30.11814576 29.30175781 33.6862793 C29.35392533 37.78958669 29.37301694 41.89249139 29.390625 45.99609375 C29.41127014 47.26206894 29.43191528 48.52804413 29.45318604 49.8323822 C29.45502671 57.14675142 28.72456336 62.65119775 25 69 C24.41693085 69.99543068 24.41693085 69.99543068 23.82208252 71.01097107 C19.79268994 77.54706334 13.31383918 81.12314599 6 83 C2.53569063 83.23028335 -0.90513581 83.18884867 -4.375 83.125 C-7.55125 83.08375 -10.7275 83.0425 -14 83 C-14 73.76 -14 64.52 -14 55 C-7.565 54.505 -7.565 54.505 -1 54 C-0.67 36.18 -0.34 18.36 0 0 Z " fill="#FCF6F6" transform="translate(351,240)"/>
<path d="M0 0 C0.66 0 1.32 0 2 0 C4.34942978 6.61563998 6.69704455 13.23192207 9.04345703 19.84863281 C9.84024938 22.09487139 10.6374421 24.340968 11.43505859 26.58691406 C12.58799371 29.83360245 13.73944059 33.08081551 14.890625 36.328125 C15.24183411 37.31613098 15.59304321 38.30413696 15.95489502 39.32208252 C18.38661089 46.18772255 20.71837859 53.08307855 23 60 C22.01 60.33 21.02 60.66 20 61 C18.57169148 57.19295001 17.14763945 53.38433843 15.72753906 49.57421875 C15.24368589 48.27788194 14.75866515 46.9819803 14.27246094 45.68652344 C13.57441411 43.82601495 12.88089053 41.96381135 12.1875 40.1015625 C11.76855469 38.98088379 11.34960938 37.86020508 10.91796875 36.70556641 C10 34 10 34 10 32 C3.07 32 -3.86 32 -11 32 C-7.625 20.75 -7.625 20.75 -5.95703125 16.2109375 C-5.60576172 15.25058594 -5.25449219 14.29023438 -4.89257812 13.30078125 C-4.53615234 12.33527344 -4.17972656 11.36976563 -3.8125 10.375 C-3.44447266 9.37082031 -3.07644531 8.36664063 -2.69726562 7.33203125 C-1.80077369 4.88705325 -0.90165072 2.44307919 0 0 Z " fill="#1F1D1D" transform="translate(171,238)"/>
<path d="M0 0 C2.40059817 2.40059817 2.89495951 4.22648882 3.9453125 7.4453125 C4.29980469 8.52167969 4.65429688 9.59804688 5.01953125 10.70703125 C5.38433594 11.83496094 5.74914062 12.96289062 6.125 14.125 C6.68380859 15.82849609 6.68380859 15.82849609 7.25390625 17.56640625 C8.17466183 20.37589122 9.08977335 23.1870897 10 26 C9.01 26.33 8.02 26.66 7 27 C5.62535429 23.44506689 4.27897717 19.88006784 2.9375 16.3125 C2.54755859 15.30509766 2.15761719 14.29769531 1.75585938 13.25976562 C1.39169922 12.28330078 1.02753906 11.30683594 0.65234375 10.30078125 C0.31195068 9.40528564 -0.02844238 8.50979004 -0.37915039 7.5871582 C-1.07545953 4.68555068 -0.79251409 2.84900959 0 0 Z " fill="#2A2929" transform="translate(184,272)"/>
<path d="M0 0 C2.46301423 2.46301423 2.76766521 4.27360036 3.625 7.625 C3.88539063 8.62789063 4.14578125 9.63078125 4.4140625 10.6640625 C4.60742188 11.43492187 4.80078125 12.20578125 5 13 C4.01 13.33 3.02 13.66 2 14 C-1.62870159 4.58997722 -1.62870159 4.58997722 0 0 Z " fill="#302F2F" transform="translate(184,272)"/>
</svg>
